#!OML:ASF H:\Terrain\Patient Classification 1\Walking\liu\liu.ASF
:FULLY-SPECIFIED
:DEGREES
476
root 10.912 17.3851 30.3805 3.95137 4.54908 3.19568
lowerback -4.21172 -4.39673 -3.78265
upperback -0.332489 -5.72505 1.77581
thorax 2.56419 -2.91002 3.5538
lowerneck -22.0537 -2.47089 -9.57419
upperneck 25.2948 -2.91719 9.48784
head 12.3095 -0.982105 4.76047
rclavicle 1.4561e-014 3.18055e-015
rhumerus -48.3687 10.0707 -86.4811
rradius 39.243
rwrist -20.6361
rhand -30.4002 -27.4599
rfingers 7.12502
rthumb -3.70396 -57.4074
lclavicle 1.4561e-014 3.18055e-015
lhumerus -10.8894 -20.4723 84.2355
lradius 29.7827
lwrist 7.04867
lhand -16.0345 -25.4463
lfingers 7.12502
lthumb 10.1669 4.28807
rfemur -35.8565 2.94416 14.6926
rtibia 38.9799
rfoot -19.6233 -9.23071
rtoes -17.2171
lfemur -1.03525 2.16126 -28.5922
ltibia 16.223
lfoot -17.4648 3.85566
ltoes 6.5937
477
root 10.9107 17.3685 30.5098 4.06206 4.41222 3.49203
lowerback -5.01066 -4.40101 -4.13894
upperback 0.212202 -5.67956 1.73724
thorax 3.60355 -2.92008 3.62689
lowerneck -22.3203 -2.52553 -9.64362
upperneck 24.7535 -2.9072 9.48136
head 12.1504 -0.97438 4.75096
rclavicle 2.45499e-014 -3.18055e-015
rhumerus -47.7017 9.83142 -86.1434
rradius 39.4235
rwrist -20.4255
rhand -30.9457 -24.7801
rfingers 7.12502
rthumb -4.23073 -54.7178
lclavicle 2.45499e-014 -3.18055e-015
lhumerus -9.6324 -20.8739 83.8545
lradius 30.0519
lwrist 7.57465
lhand -15.824 -25.3876
lfingers 7.12502
lthumb 10.37 4.33672
rfemur -36.3294 3.32414 14.2404
rtibia 37.4879
rfoot -19.8274 -8.42629
rtoes -16.5651
lfemur -0.102473 2.4361 -28.8452
ltibia 15.234
lfoot -17.4345 3.72232
ltoes 6.86154
478
root 10.9064 17.3492 30.6372 4.08334 4.26583 3.73961
lowerback -7.88485 -4.25596 -4.3898
upperback 2.56292 -5.33249 1.53403
thorax 7.6889 -2.85859 3.28764
lowerneck -24.0633 -2.95812 -9.86038
upperneck 23.0961 -3.31099 9.98441
head 11.9127 -1.05773 4.86589
rclavicle -6.02318e-014 1.35174e-014
rhumerus -43.9895 8.63169 -85.4177
rradius 39.1669
rwrist -20.1538
rhand -31.1888 -24.014
rfingers 7.12502
rthumb -4.46548 -53.9469
lclavicle -6.02318e-014 1.35174e-014
lhumerus -5.08207 -22.102 82.1529
lradius 30.2261
lwrist 8.55815
lhand -15.634 -25.1397
lfingers 7.12502
lthumb 10.5533 4.57538
rfemur -36.6843 3.94055 13.7426
rtibia 36.1013
rfoot -20.1066 -7.58481
rtoes -15.2917
lfemur 0.983528 2.67262 -29.0348
ltibia 14.0796
lfoot -17.3574 3.70355
ltoes 5.94167
479
root 10.9001 17.3439 30.7652 4.07055 4.19078 3.80247
lowerback -6.88436 -4.26734 -4.41264
upperback 1.79977 -5.38969 1.54099
thorax 6.30782 -2.85405 3.40055
lowerneck -23.4638 -2.75474 -9.51691
upperneck 23.5974 -3.18856 9.79325
head 11.9645 -1.01301 4.76747
rclavicle 5.59579e-014 -7.95139e-015
rhumerus -45.5664 8.72146 -85.6113
rradius 39.3153
rwrist -20.2624
rhand -31.1868 -25.162
rfingers 7.12502
rthumb -4.46349 -55.095
lclavicle 5.59579e-014 -7.95139e-015
lhumerus -6.39019 -22.1875 82.6443
lradius 30.7671
lwrist 8.54927
lhand -15.6834 -24.9855
lfingers 7.12502
lthumb 10.5056 4.73194
rfemur -37.074 4.83462 13.329
rtibia 34.853
rfoot -20.2974 -7.24933
rtoes -12.9211
lfemur 2.23642 2.71677 -29.0142
ltibia 12.5867
lfoot -17.0906 3.76319
ltoes 4.47911
480
root 10.8962 17.3444 30.8994 4.24671 4.11752 3.50095
lowerback -6.59273 -4.37079 -4.13751
upperback 1.38897 -5.57275 1.68008
thorax 5.71198 -2.92085 3.40669
lowerneck -23.2384 -2.52517 -9.3504
upperneck 23.8934 -2.89969 9.57173
head 11.9932 -0.904089 4.71082
rclavicle -4.17448e-014 6.36111e-015
rhumerus -46.3673 9.19198 -85.8923
rradius 39.2306
rwrist -20.4732
rhand -31.4327 -25.314
rfingers 7.12502
rthumb -4.70095 -55.2418
lclavicle -4.17448e-014 6.36111e-015
lhumerus -7.06232 -21.6054 82.8995
lradius 31.1118
lwrist 8.12417
lhand -16.3449 -25.1138
lfingers 7.12502
lthumb 9.86745 4.63493
rfemur -37.7514 5.75285 13.2671
rtibia 33.6821
rfoot -20.3162 -7.34374
rtoes -10.6042
lfemur 3.47929 2.69973 -28.6212
ltibia 10.6447
lfoot -16.5848 3.8709
ltoes 4.83581
